<?xml version="1.0" standalone="no"?><!DOCTYPE svg PUBLIC "-//W3C//DTD SVG 1.1//EN" "http://www.w3.org/Graphics/SVG/1.1/DTD/svg11.dtd"><svg t="1577152184058" class="icon" viewBox="0 0 1024 1024" version="1.1" xmlns="http://www.w3.org/2000/svg" p-id="10979" xmlns:xlink="http://www.w3.org/1999/xlink" width="200" height="200"><defs><style type="text/css"></style></defs><path d="M512 64.050782c60.495816 0 119.153774 11.836583 174.345794 35.181267 53.335742 22.558785 101.245915 54.864562 142.401244 96.01989s73.461105 89.066525 96.01989 142.401244c23.344684 55.19202 35.181267 113.851001 35.181267 174.345794 0 60.494793-11.836583 119.153774-35.181267 174.345793-22.558785 53.334719-54.864562 101.245915-96.01989 142.401244s-89.066525 73.461105-142.401244 96.019891c-55.19202 23.344684-113.851001 35.181267-174.345794 35.181267s-119.153774-11.836583-174.345794-35.181267c-53.335742-22.558785-101.245915-54.864562-142.401244-96.019891S121.791857 739.679489 99.233072 686.34477c-23.344684-55.19202-35.181267-113.851001-35.181267-174.345793 0-60.495816 11.836583-119.153774 35.181267-174.345794 22.558785-53.335742 54.864562-101.245915 96.01989-142.401244s89.066525-73.461105 142.401244-96.01989c55.19202-23.344684 113.849978-35.181267 174.345794-35.181267m0-51.16531c-275.653107 0-499.114528 223.461421-499.114528 499.114528S236.346893 1011.114528 512 1011.114528s499.114528-223.461421 499.114528-499.114528S787.653107 12.885472 512 12.885472z" fill="#030B65" p-id="10980"></path><path d="M762.686483 762.688529a20.11206 20.11206 0 0 1-28.490892 0L613.42704 641.968074c-34.751478 28.294416-78.524424 46.039569-126.880758 46.039569-111.353111 0-201.709001-90.25663-201.709002-201.560622 0-111.354134 90.354867-201.609741 201.709002-201.609741 111.403253 0 201.709001 90.255607 201.709001 201.609741 0 20.555152-4.189416 39.830147-10.154267 58.265008l0.147356 1.38044c0 4.437056-1.724271 8.281617-4.188393 11.633968-0.345877 0.887206-0.494257 1.87265-0.839111 2.760881l-0.591471-0.591471c-3.647063 3.844561-8.774851 6.309706-14.492062 6.309706-11.139711 0-20.160155-9.021467-20.160156-20.11206l-0.197498-1.873674c0-5.323239 2.168386-10.055007 5.520737-13.652951l-2.36486-2.317789c3.695159-13.505595 6.309706-27.505447 6.309706-42.195008 0-88.87619-72.117504-160.943552-161.04179-160.943552-88.926332 0-161.04179 72.067362-161.04179 160.943552 0 88.875167 72.115458 160.942529 161.04179 160.942529 44.166919 0 84.143399-17.844413 113.225761-46.580898a1.019213 1.019213 0 0 0 0.197498-0.296759l29.132504 0.492211 69.306482 69.258386 0.097215-0.09926 64.524572 64.475453c7.887644 7.837502 7.887644 20.603247-0.001023 28.442796z" fill="#030B65" p-id="10981"></path></svg>