<?xml version="1.0" standalone="no"?><!DOCTYPE svg PUBLIC "-//W3C//DTD SVG 1.1//EN" "http://www.w3.org/Graphics/SVG/1.1/DTD/svg11.dtd"><svg t="1577085456164" class="icon" viewBox="0 0 1024 1024" version="1.1" xmlns="http://www.w3.org/2000/svg" p-id="1871" width="200" height="200" xmlns:xlink="http://www.w3.org/1999/xlink"><defs><style type="text/css"></style></defs><path d="M509.88 1013.6a458.51 458.51 0 0 1-257.54-78.67A461.91 461.91 0 0 1 85.48 732.29a460 460 0 0 1 42.47-436.83 461.91 461.91 0 0 1 202.64-166.87 460 460 0 0 1 436.83 42.47A461.92 461.92 0 0 1 934.28 373.7a460 460 0 0 1-42.47 436.83A461.91 461.91 0 0 1 689.17 977.4a457.73 457.73 0 0 1-179.29 36.2z m0-895.78C269.92 117.82 74.7 313 74.7 553s195.22 435.17 435.18 435.17S945.06 793 945.06 553 749.84 117.82 509.88 117.82z" fill="#323333" p-id="1872"></path><path d="M508.2 103.7m-93.3 0a93.3 93.3 0 1 0 186.6 0 93.3 93.3 0 1 0-186.6 0Z" fill="#323333" p-id="1873"></path><path d="M926.2 723.18m-93.3 0a93.3 93.3 0 1 0 186.6 0 93.3 93.3 0 1 0-186.6 0Z" fill="#323333" p-id="1874"></path><path d="M97.8 723.18m-93.3 0a93.3 93.3 0 1 0 186.6 0 93.3 93.3 0 1 0-186.6 0Z" fill="#323333" p-id="1875"></path><path d="M509.88 562.18a94.92 94.92 0 1 1 67.12-27.8 94.29 94.29 0 0 1-67.12 27.8z m0-164.41a69.49 69.49 0 1 0 69.49 69.49 69.57 69.57 0 0 0-69.49-69.49z" fill="#323333" p-id="1876"></path><path d="M695.74 733.64H683c-95.49 0-169.86-0.57-173.14-0.6-3.11 0-73.49 0.6-173.16 0.6H324v-12.71a185.86 185.86 0 1 1 371.72 0zM509.88 560.49c-84.18 0-153.43 65.18-159.94 147.72 94.24 0 159.16-0.59 159.83-0.6h0.23c0.71 0 69.22 0.55 159.84 0.6-6.53-82.54-75.78-147.72-159.96-147.72z" fill="#323333" p-id="1877"></path></svg>