<?xml version="1.0" standalone="no"?><!DOCTYPE svg PUBLIC "-//W3C//DTD SVG 1.1//EN" "http://www.w3.org/Graphics/SVG/1.1/DTD/svg11.dtd"><svg t="1577438902680" class="icon" viewBox="0 0 1280 1024" version="1.1" xmlns="http://www.w3.org/2000/svg" p-id="9163" xmlns:xlink="http://www.w3.org/1999/xlink" width="250" height="200"><defs><style type="text/css"></style></defs><path d="M1258.705911 321.277987L689.583833 14.151697a109.627023 109.627023 0 0 0-107.664827 0L23.034472 321.277987a40.779546 40.779546 0 0 0-23.034472 37.708283 44.789251 44.789251 0 0 0 23.034472 40.352982l53.832413 29.603562v288.101522a74.3075 74.3075 0 0 0-35.916713 61.937135 70.724359 70.724359 0 0 0 69.188728 72.686555 70.127169 70.127169 0 0 0 69.188728-70.041856 70.809672 70.809672 0 0 0-35.916713-61.937135V466.651097l148.700312 80.791277v314.975072a85.995361 85.995361 0 0 0 58.951185 83.435976l176.853555 59.207123a394.657282 394.657282 0 0 0 110.224213 18.854142 372.902503 372.902503 0 0 0 107.664827-16.12413l189.735797-61.937135a85.995361 85.995361 0 0 0 58.951185-83.435976V539.337652l261.48391-139.9984a40.779546 40.779546 0 0 0 23.034472-37.708283 36.684529 36.684529 0 0 0-20.475086-40.352982z m-328.113253 541.139459a17.062572 17.062572 0 0 1-12.796929 16.124131l-189.735797 61.937135a291.855288 291.855288 0 0 1-179.157002 0l-177.194807-58.78056a20.219147 20.219147 0 0 1-12.796928-18.854141V582.84721l225.567197 121.144259a132.405556 132.405556 0 0 0 53.832413 13.479431 132.405556 132.405556 0 0 0 53.832414-13.479431l241.008825-129.248981c-2.559386 0-2.559386 288.101522-2.559386 288.101523zM661.43059 641.627769a47.007385 47.007385 0 0 1-46.154256 0l-517.84905-282.726812L615.276334 76.174145a46.922072 46.922072 0 0 1 46.154256 0l525.527207 282.726812c-2.559386 0.085313-525.527207 282.812125-525.527207 282.812125z" p-id="9164" fill="#031634"></path></svg>