<?xml version="1.0" standalone="no"?><!DOCTYPE svg PUBLIC "-//W3C//DTD SVG 1.1//EN" "http://www.w3.org/Graphics/SVG/1.1/DTD/svg11.dtd"><svg t="1577439137649" class="icon" viewBox="0 0 1024 1024" version="1.1" xmlns="http://www.w3.org/2000/svg" p-id="11848" xmlns:xlink="http://www.w3.org/1999/xlink" width="200" height="200"><defs><style type="text/css"></style></defs><path d="M956.806367 568.806096a330.760745 330.760745 0 0 0-71.385165-121.724505v-9.3853a174.907875 174.907875 0 0 0-22.752244-85.320915 350.668958 350.668958 0 1 0-701.622319 0 174.623471 174.623471 0 0 0-22.183438 85.320915v8.532091A331.613954 331.613954 0 0 0 67.193633 568.806096c-31.853141 101.816291-28.440305 222.97199 44.082472 247.146249a72.522777 72.522777 0 0 0 23.605453 3.981642 77.073226 77.073226 0 0 0 17.632989-1.990821 102.385097 102.385097 0 0 0-32.990753 72.80718C119.523794 966.970363 209.395157 1023.850973 332.82608 1023.850973a286.678272 286.678272 0 0 0 162.678543-44.366876h32.706351A286.678272 286.678272 0 0 0 690.889517 1023.850973c123.430923 0 213.302286-56.88061 213.302286-133.100627a102.385097 102.385097 0 0 0-32.990753-73.660389 76.220017 76.220017 0 0 0 18.201795 2.275224 72.80718 72.80718 0 0 0 23.32105-3.697239c71.385165-24.458662 75.935614-145.614361 44.082472-246.861846z m-61.999864 193.678476a16.77978 16.77978 0 0 1-5.403658 0 54.605385 54.605385 0 0 1-34.128366-22.467841 25.027468 25.027468 0 0 0-19.339407-9.100898h-2.844031a25.311871 25.311871 0 0 0-19.908213 13.366944 326.210296 326.210296 0 0 1-31.568738 48.348518 25.311871 25.311871 0 0 0 10.238509 38.963217c35.550381 14.788958 56.88061 36.119187 56.88061 58.587028 0 42.376054-70.531956 76.788823-156.990483 76.788823a220.696765 220.696765 0 0 1-136.22906-38.963217 25.596274 25.596274 0 0 0-16.779779-6.256867h-52.614564a24.743065 24.743065 0 0 0-16.495377 6.256867A220.696765 220.696765 0 0 1 332.82608 966.970363c-85.320914 0-156.990482-34.412769-156.990483-76.788823 0-22.467841 20.477019-44.082472 56.88061-58.587028a25.311871 25.311871 0 0 0 10.23851-38.963217 327.916714 327.916714 0 0 1-31.568739-48.348518 25.311871 25.311871 0 0 0-19.908213-13.366944h-2.844031a25.311871 25.311871 0 0 0-19.62381 9.100898 54.320982 54.320982 0 0 1-33.843963 22.752244 16.77978 16.77978 0 0 1-5.688061 0c-26.16508-8.816494-35.550381-89.58696-8.247688-176.898696a280.990211 280.990211 0 0 1 68.825538-110.632786 25.311871 25.311871 0 0 0 6.825673-21.614631 98.119052 98.119052 0 0 1 0-15.357765 121.440101 121.440101 0 0 1 18.770601-63.706283 25.311871 25.311871 0 0 0 3.69724-14.788958v-5.688061a294.641558 294.641558 0 1 1 588.998712 0v5.119255a25.311871 25.311871 0 0 0 3.69724 14.788958 121.440101 121.440101 0 0 1 19.339407 64.275089 97.550245 97.550245 0 0 1 0 15.926571 25.311871 25.311871 0 0 0 6.825673 21.899034 280.137002 280.137002 0 0 1 68.256732 109.779577c23.889856 86.458527 14.504555 167.228992-11.660525 176.045487z" p-id="11849" fill="#031634"></path></svg>