<?xml version="1.0" standalone="no"?><!DOCTYPE svg PUBLIC "-//W3C//DTD SVG 1.1//EN" "http://www.w3.org/Graphics/SVG/1.1/DTD/svg11.dtd"><svg t="1577439221803" class="icon" viewBox="0 0 1024 1024" version="1.1" xmlns="http://www.w3.org/2000/svg" p-id="13941" xmlns:xlink="http://www.w3.org/1999/xlink" width="200" height="200"><defs><style type="text/css"></style></defs><path d="M183.005867 588.29824v-51.15904c0-27.58656 22.35392-49.94048 49.547946-49.94048h223.368534V285.375147a24.753493 24.753493 0 0 1 24.773973-24.773974h86.811307a24.73984 24.73984 0 0 1 24.767146 24.773974v201.82016h210.896214c27.378347 0 49.547947 22.35392 49.547946 49.94048v303.346346h49.74592c13.69088 0 24.784213 11.072853 24.784214 24.978774a24.763733 24.763733 0 0 1-24.784214 24.763733H120.968533a24.746667 24.746667 0 0 1-24.773973-24.763733c0-13.90592 11.072853-24.978773 24.773973-24.978774h62.037334v-252.183893z m49.742506 45.120853v207.06304h570.4192v-209.28512l-3.03104 3.621547-2.205013 3.03104c-24.193707 30.624427-41.50272 43.707733-73.130667 43.707733-31.82592 0-47.7184-12.690773-71.499093-44.100266-14.88896-19.94752-20.749653-24.58624-32.023893-24.58624-11.072853 0-16.715093 4.44416-31.822507 24.39168-23.565653 31.607467-39.4752 44.29824-71.304533 44.29824-31.81568 0-47.72864-12.690773-71.499094-44.100267-15.107413-19.94752-20.742827-24.58624-32.023893-24.58624-11.281067 0-16.923307 4.44416-31.82592 24.39168-23.56224 31.607467-39.4752 44.29824-71.30112 44.29824-31.020373 0-50.158933-13.694293-74.724693-43.29472l-4.027734-4.850347z m0-65.87392c11.48928 5.03808 21.756587 14.516907 33.437014 28.402347l8.666453 10.482347c15.90272 19.13856 24.773973 25.37472 36.655787 25.37472 11.281067 0 16.718507-4.427093 31.82592-24.3712 23.56224-31.63136 39.4752-44.315307 71.30112-44.315307 31.81568 0 47.72864 12.68736 71.499093 44.120747 15.107413 19.944107 20.742827 24.56576 32.02048 24.56576 11.083093 0 16.718507-4.427093 31.82592-24.3712 23.56224-31.63136 39.4752-44.315307 71.30112-44.315307s47.73888 12.68736 71.499093 44.120747c15.107413 19.944107 20.753067 24.56576 31.82592 24.56576 11.8784 0 18.722133-5.229227 34.24256-24.961707l2.22208-2.833067c15.301973-19.135147 27.183787-30.818987 41.895254-36.662613v-30.214827H232.3456c0.208213 0.003413 0.208213 11.48928 0.402773 30.4128z m292.266667-327.891626c-17.732267 0-36.461227-6.2464-37.874347-27.593387-1.604267-21.15584 21.961387-19.541333 32.03072-33.037653 10.267307-13.492907 5.843627-44.107093 5.843627-44.107094s40.075947 41.49248 40.075947 64.054614c0 22.54848-17.94048 40.68352-40.075947 40.68352z m-19.544747 235.65312h37.2736V310.347093h-37.2736v164.959574z" p-id="13942" fill="#031634"></path></svg>