<?xml version="1.0" standalone="no"?><!DOCTYPE svg PUBLIC "-//W3C//DTD SVG 1.1//EN" "http://www.w3.org/Graphics/SVG/1.1/DTD/svg11.dtd"><svg t="1577429223690" class="icon" viewBox="0 0 1024 1024" version="1.1" xmlns="http://www.w3.org/2000/svg" p-id="3054" xmlns:xlink="http://www.w3.org/1999/xlink" width="200" height="200"><defs><style type="text/css"></style></defs><path d="M512 0C230.4 0 0 230.4 0 512s230.4 512 512 512 512-230.4 512-512S793.6 0 512 0z m264.533333 435.2l-268.8 268.8c-21.333333 21.333333-51.2 21.333333-72.533333 0-4.266667-4.266667-153.6-157.866667-153.6-157.866667-21.333333-21.333333-21.333333-51.2 0-72.533333s51.2-21.333333 72.533333 0l119.466667 119.466667 230.4-230.4c21.333333-21.333333 51.2-21.333333 72.533333 0 21.333333 17.066667 21.333333 51.2 0 72.533333z" fill="#031634" p-id="3055"></path></svg>