<?xml version="1.0" standalone="no"?><!DOCTYPE svg PUBLIC "-//W3C//DTD SVG 1.1//EN" "http://www.w3.org/Graphics/SVG/1.1/DTD/svg11.dtd"><svg t="1577150909237" class="icon" viewBox="0 0 1024 1024" version="1.1" xmlns="http://www.w3.org/2000/svg" p-id="7169" xmlns:xlink="http://www.w3.org/1999/xlink" width="200" height="200"><defs><style type="text/css"></style></defs><path d="M937.472 246.784h-216.064c-11.264-106.496-101.888-189.952-211.456-189.952S309.76 139.776 298.496 246.784H82.432a34.304 34.304 0 0 0 0 68.608h73.728v553.984c0 60.416 49.152 109.568 109.568 109.568h488.448c60.416 0 109.568-49.152 109.568-109.568V314.88h73.728c18.944 0 34.304-15.36 34.304-34.304-0.512-18.944-15.872-33.792-34.304-33.792zM509.952 124.928c71.68 0 131.072 52.736 141.824 121.856H367.616C378.88 177.664 438.272 124.928 509.952 124.928z m285.184 743.936c0 22.528-18.432 40.96-40.96 40.96H265.728c-22.528 0-40.96-18.432-40.96-40.96V314.88h570.88v553.984z m-410.624-101.376l-1.536-277.504c0-18.944 14.848-34.304 33.792-34.304 18.944 0 33.792 15.36 34.304 33.792l1.536 277.504c0 18.944-14.848 34.304-33.792 34.304-18.944 0.512-34.304-14.848-34.304-33.792z m183.808 0l-1.536-277.504c0-18.944 14.848-34.304 33.792-34.304 18.944 0 33.792 15.36 34.304 33.792l1.536 277.504c0 18.944-14.848 34.304-33.792 34.304-18.944 0.512-34.304-14.848-34.304-33.792z" p-id="7170" fill="#030B65"></path></svg>